<?xml version="1.0" standalone="no"?>
<!DOCTYPE svg PUBLIC "-//W3C//DTD SVG 20010904//EN"
 "http://www.w3.org/TR/2001/REC-SVG-20010904/DTD/svg10.dtd">
<svg version="1.0" xmlns="http://www.w3.org/2000/svg"
 width="238.000000pt" height="238.000000pt" viewBox="0 0 238.000000 238.000000"
 preserveAspectRatio="xMidYMid meet">
<metadata>
Created by potrace 1.14, written by Peter Selinger 2001-2017
</metadata>
<g transform="translate(0.000000,238.000000) scale(0.100000,-0.100000)"
fill="#000000" stroke="none">
<path d="M1462 2233 c-46 -16 -94 -59 -117 -104 -25 -47 -30 -164 -11 -238 9
-35 15 -65 14 -66 -5 -4 -753 -65 -790 -65 -34 0 -37 3 -54 48 -50 139 -88
197 -146 228 -40 21 -184 19 -228 -4 -76 -38 -113 -139 -114 -312 -1 -106 1
-119 26 -166 34 -64 103 -126 160 -143 24 -8 71 -16 106 -19 34 -2 62 -5 62
-6 0 0 -83 -215 -184 -476 -154 -401 -180 -476 -167 -482 9 -4 203 -43 431
-87 398 -77 416 -81 435 -108 56 -76 87 -103 119 -103 61 0 126 66 126 129 0
12 2 21 5 21 3 0 125 27 273 59 570 127 660 144 694 132 17 -6 49 -11 71 -11
36 0 46 6 86 48 25 27 64 84 85 127 37 73 39 80 25 104 -12 21 -22 26 -55 26
-21 0 -50 6 -63 14 -34 19 -86 1 -138 -49 l-42 -41 -46 91 c-74 148 -415 871
-415 881 0 4 13 15 28 23 38 20 100 89 120 135 12 26 16 67 17 146 0 94 -3
116 -22 151 -33 63 -92 110 -152 123 -65 14 -86 13 -139 -6z m223 -67 c67 -64
89 -161 65 -287 -13 -66 -47 -119 -102 -159 -22 -17 -44 -30 -47 -30 -3 0 -16
25 -28 56 -20 52 -21 59 -7 85 18 36 35 124 28 144 -11 28 -22 15 -39 -41 -17
-57 -32 -70 -107 -89 -32 -8 -38 5 -45 102 -8 94 12 148 73 202 48 42 116 71
148 63 10 -3 38 -24 61 -46z m-1445 -176 c29 -6 68 -21 85 -34 45 -35 103
-150 114 -227 5 -35 7 -66 5 -68 -9 -10 -82 38 -99 66 -34 55 -54 34 -35 -38
13 -49 68 -109 98 -109 20 0 20 -2 -7 -82 l-28 -83 -66 1 c-36 0 -85 8 -111
18 -61 23 -131 102 -151 169 -30 101 -10 284 40 359 22 33 30 38 64 38 21 0
62 -5 91 -10z m1134 -576 c10 -27 7 -89 -6 -102 -13 -13 -57 -16 -75 -4 -6 4
-14 28 -18 53 -6 40 -4 49 12 58 28 16 80 14 87 -5z m-256 -21 c11 -16 23 -42
26 -60 6 -25 3 -34 -16 -47 -52 -37 -118 -13 -153 54 -14 28 -14 29 13 48 59
41 103 43 130 5z m112 -172 c0 -6 -4 -13 -10 -16 -17 -11 -11 -43 12 -59 32
-23 61 -20 87 8 25 27 22 62 -7 69 -10 3 -5 5 11 6 21 1 27 -3 25 -15 -2 -11
5 -18 19 -19 33 -2 36 -10 23 -49 -15 -47 -62 -96 -92 -96 -12 0 -45 13 -71
29 -39 22 -45 30 -31 35 12 5 14 10 7 17 -14 14 -44 -2 -72 -37 -25 -32 -17
-53 11 -28 18 17 21 17 77 -14 32 -18 68 -32 79 -32 28 0 79 44 101 88 l19 36
6 -31 c16 -70 -37 -158 -113 -190 -36 -15 -107 -11 -146 9 -61 31 -108 118
-74 138 10 7 10 11 0 24 -11 13 -10 21 6 48 11 19 27 33 39 33 13 0 18 6 16
18 -2 10 6 21 20 27 31 12 58 12 58 1z"/>
<path d="M1300 1385 c-17 -20 -5 -45 20 -45 11 0 23 7 26 15 6 15 -11 45 -26
45 -4 0 -13 -7 -20 -15z"/>
<path d="M1050 1361 c-16 -32 4 -63 38 -59 24 3 27 7 27 38 0 31 -3 35 -27 38
-19 2 -30 -3 -38 -17z"/>
<path d="M1308 1002 c-23 -14 -30 -14 -52 -2 -35 18 -47 3 -17 -21 32 -26 55
-24 93 11 36 32 21 39 -24 12z"/>
</g>
</svg>
